<svg width="1024" height="1024" version="1.1" viewBox="0 0 1024 1024" xmlns="http://www.w3.org/2000/svg"><defs><linearGradient id="b" x1="85.915" x2="86.535" y1="32.567" y2="137.09" gradientTransform="matrix(-1 0 0 1 174.32 0)" gradientUnits="userSpaceOnUse"><stop stop-color="#57d163" offset="0"/><stop stop-color="#23b33a" offset="1"/></linearGradient><filter id="a" x="-.057347" y="-.057091" width="1.1147" height="1.1142" color-interpolation-filters="sRGB"><feGaussianBlur stdDeviation="3.531"/></filter></defs><g transform="matrix(6.1916 0 0 6.1916 -30.433 -31.476)"><path transform="matrix(-1 0 0 1 175.22 0)" d="m54.532 138.45 2.235 1.324c9.387 5.571 20.15 8.518 31.126 8.523h0.023c33.707 0 61.139-27.426 61.153-61.135 6e-3 -16.335-6.349-31.696-17.895-43.251a60.75 60.75 0 0 0-43.234-17.928c-33.733 0-61.166 27.423-61.178 61.13a60.98 60.98 0 0 0 9.349 32.535l1.455 2.312-6.179 22.558zm-40.811 23.544 10.439-38.114c-6.438-11.154-9.825-23.808-9.821-36.772 0.017-40.556 33.021-73.55 73.578-73.55 19.681 0.01 38.154 7.669 52.047 21.572s21.537 32.383 21.53 52.037c-0.018 40.553-33.027 73.553-73.578 73.553h-0.032c-12.313-5e-3 -24.412-3.094-35.159-8.954z" fill="#b3b3b3" filter="url(#a)"/><path d="m160.74 161.24-10.439-38.114a73.42 73.42 0 0 0 9.821-36.772c-0.017-40.556-33.021-73.55-73.578-73.55-19.681 0.01-38.154 7.669-52.047 21.572s-21.537 32.383-21.53 52.037c0.018 40.553 33.027 73.553 73.578 73.553h0.032c12.313-5e-3 24.412-3.094 35.159-8.954z" fill="#fff"/><path d="m87.136 25.227c33.733 0 61.166 27.423 61.178 61.13a60.98 60.98 0 0 1-9.349 32.535l-1.455 2.313 6.179 22.558-23.146-6.069-2.235 1.324c-9.387 5.571-20.15 8.517-31.126 8.523h-0.023c-33.707 0-61.14-27.426-61.153-61.135a60.75 60.75 0 0 1 17.895-43.251 60.75 60.75 0 0 1 43.235-17.928z" fill="url(#b)"/><path d="m53.962 89.595 12.941 12.941 31.058-31.058m-12.941 25.882 5.1764 5.1764 31.058-31.058" fill="none" stroke="#fff" stroke-linecap="round" stroke-width="7.4274"/></g></svg>
